<?xml version="1.0" standalone="no"?>
<!DOCTYPE svg PUBLIC "-//W3C//DTD SVG 20010904//EN"
 "http://www.w3.org/TR/2001/REC-SVG-20010904/DTD/svg10.dtd">
<svg version="1.0" xmlns="http://www.w3.org/2000/svg"
 width="700.000000pt" height="700.000000pt" viewBox="0 0 700.000000 700.000000"
 preserveAspectRatio="xMidYMid meet">
<metadata>
Created by potrace 1.14, written by Peter Selinger 2001-2017
</metadata>
<g transform="translate(0.000000,700.000000) scale(0.100000,-0.100000)"
fill="#000000" stroke="none">
<path d="M267 5551 c-3 -6 -1 -4072 2 -4097 1 -8 113 -11 399 -11 l397 0 0
1323 c0 728 0 1324 1 1324 1 0 48 -87 105 -192 106 -199 122 -228 169 -313 15
-27 45 -84 67 -125 22 -41 54 -100 70 -130 17 -30 49 -91 73 -135 23 -44 72
-134 108 -200 108 -200 127 -235 202 -375 40 -74 87 -162 105 -195 18 -33 73
-134 122 -225 49 -91 92 -172 96 -180 4 -8 18 -33 30 -55 13 -22 48 -87 79
-145 31 -58 72 -134 93 -170 20 -36 39 -73 42 -83 3 -10 10 -16 15 -15 8 3
371 667 853 1563 18 33 73 134 122 225 50 91 109 201 133 245 24 44 53 98 65
120 13 22 42 76 65 120 113 210 132 245 138 245 4 0 6 -591 6 -1314 l-2 -1314
399 1 399 0 0 678 0 679 328 1 c340 1 374 2 467 14 587 73 1047 406 1232 890
160 421 93 913 -173 1268 -124 165 -322 326 -514 415 -81 38 -149 66 -160 67
-3 0 -9 3 -15 7 -12 7 -246 65 -295 73 -115 17 -251 20 -965 20 l-790 0 -15
-30 c-8 -16 -37 -70 -64 -120 -68 -124 -261 -484 -308 -574 -22 -41 -52 -97
-67 -125 -16 -28 -50 -91 -76 -141 -27 -49 -76 -142 -110 -205 -34 -63 -84
-155 -110 -205 -26 -49 -60 -112 -75 -140 -15 -27 -49 -90 -75 -140 -26 -49
-60 -112 -75 -140 -15 -27 -45 -84 -67 -125 -92 -172 -138 -258 -161 -300 -14
-25 -36 -66 -49 -92 -13 -27 -27 -48 -32 -48 -5 0 -21 24 -36 53 -15 28 -50
91 -76 140 -27 48 -49 89 -49 91 0 2 -17 35 -38 73 -21 37 -59 106 -84 153
-25 47 -59 110 -75 140 -38 69 -222 410 -276 510 -63 118 -97 181 -207 385
-57 105 -118 219 -138 255 -19 36 -47 88 -62 115 -74 137 -181 336 -208 388
-16 31 -35 64 -41 71 -9 11 -94 13 -452 13 -242 0 -441 -3 -442 -6z m4983
-765 c280 -29 505 -157 595 -341 48 -98 64 -174 60 -297 -9 -309 -186 -483
-565 -557 -122 -24 -266 -34 -525 -35 l-190 -1 -3 610 c-1 336 0 615 2 620 4
12 514 12 626 1z"/>
</g>
</svg>
