<?xml version="1.0" encoding="UTF-8"?><svg xmlns="http://www.w3.org/2000/svg" viewBox="0 0 89.81 66.72"><path id="pen-field" d="M64.27,17.97l6.19,5.75-15.21,14.12-7.07.82.88-6.57,15.21-14.12ZM77.6,25.93l2.39-2.22,5.07-4.7,4.76-4.42-4.76-4.42-6.2-5.76-4.76-4.42-4.76,4.42-5.07,4.7-2.38,2.22-2.38,2.22-16.84,15.64-1.39,10.28-.86,6.4,6.89-.79,11.07-1.29,16.84-15.64,2.39-2.22ZM75.21,19.3l-6.19-5.75,5.07-4.7,6.19,5.75-5.07,4.7ZM3.37,16.68H0v50.04h80.82v-29.19h-6.74v22.94H6.74V22.93h33.68v-6.25H3.37ZM22.45,37.53h-8.98v8.34h8.98v-8.34ZM26.94,37.53v8.34h8.98v-8.34h-8.98Z" fill="#f1ebdc" stroke-width="0"/></svg>