<?xml version="1.0" encoding="UTF-8"?><svg id="Layer_2" xmlns="http://www.w3.org/2000/svg" viewBox="0 0 288.86 183.82"><g id="Layer_1-2"><path d="m194.63,183.82h-35.99l-.06-5.26v-113.04l-61.25,114.06-61.35-114.06v118.29H0V0h39.68l57.65,107.41L154.99,0h64.29c40.32,0,69.58,25.98,69.58,61.76s-29.26,61.76-69.58,61.76h-35.17V23.71h31.63c28.63,0,47.13,14.93,47.13,38.05s-18.5,38.05-47.13,38.05h-7.94v-10.51h7.94c22.59,0,36.62-10.55,36.62-27.54s-14.03-27.54-36.62-27.54h-21.12v78.79h24.66c34.23,0,59.07-21.55,59.07-51.25s-24.84-51.25-59.07-51.25h-58l-63.94,119.13L33.39,10.51H10.51v162.8h14.97V23.71l71.86,133.65L169.09,23.71v149.59h15.02v-34.65h10.51v45.16Z" style="fill:currentColor; stroke-width:0px;"/></g></svg>